# xmcd
#
# Track frame offsets:
# 150
# 14750
# 28022
# 37877
# 51492
# 65755
# 84911
# 96906
# 109402
# 121401
#
# Disc length: 1761 seconds
#
#
# Revision: 2
# Processed by: cddbd v1.5.2PL0 Copyright (c) Steve Scherf et al.
# Submitted via: FreeRIP 2.945 
#
DISCID=8906df0a
DTITLE=Reba McEntire - Behind the Scene
DYEAR=1983
DGENRE=Country
TTITLE0=Love Isn't Love (Til You Give It Away)
TTITLE1=Is It Really Love
TTITLE2=Reasons
TTITLE3=Nickel Dreams
TTITLE4=One Good Reason
TTITLE5=You Really Better Love Me After This
TTITLE6=There Ain't No Future In This
TTITLE7=Why Do We Want (What We Know We Can't Have)
TTITLE8=I Sacrificed More Than You'll Ever Lose
TTITLE9=Reba McEntire - Pins And Needles
EXTD=
EXTT0=
EXTT1=
EXTT2=
EXTT3=
EXTT4=
EXTT5=
EXTT6=
EXTT7=
EXTT8=
EXTT9=
PLAYORDER=
